# xmcd
#
# Track frame offsets: 
#        150
#        11751
#        17545
#        28501
#        45013
#        66637
#        81843
#        94194
#        110175
#        116274
#        121985
#        138421
#        156074
#        176847
#        198101
#        213121
#        221973
#        247296
#        265703
#        281240
#        295864
#        309796
#
# Disc length: 4310 seconds
#
# Revision: 0
# Processed by: cddbd v1.5.2PL0 Copyright (c) Steve Scherf et al.
# Submitted via: ExactAudioCopyFreeDBPlugin 1.0
#
DISCID=3e10d416
DTITLE=Various Artist - Music Makers Relief
DYEAR=1900
DGENRE=Blues
TTITLE0=Samuel Turner Stevens  - Railroadin' and Gamblin'
TTITLE1=Pura Fé  - Pigeon Dance
TTITLE2=Clyde Langford  - High Steppin' Mamma
TTITLE3=James Davis - Fred, You Ought To Be Dead
TTITLE4=Beverly "Guitar" Watkins - Back In Business
TTITLE5=Carolina Chocolate Drops  - Sourwood Mountain
TTITLE6=Guitar Gabriel  - Let No Woman
TTITLE7=Macavine Hayes - Snatch That Thing
TTITLE8=Algia Mae Hinton  - Cook Corn Bread For You Husband, Biscuits 
TTITLE8=For Your Outside
TTITLE9=Willa Mae Buckner  - Peter Rumpkin
TTITLE10=Adolphus Bell  - Child Support Blues
TTITLE11=Ironing Board Sam  - Nothing But Your Butt
TTITLE12=Benton Flippen  - Benton's Dream
TTITLE13=Eddie Tigner  - Route 66
TTITLE14=Jerry "Boogie" McCain - My New Next Door Neighbor
TTITLE15=Carl Hodges  - Flossie
TTITLE16=W.C. Minger IV  - Home On The Range
TTITLE17=Boo Hanks and Dom Flemons  - Keep On Truckin'
TTITLE18=Captain Luke and Cool John Ferguson - Old Black Buck
TTITLE19=Leyla McCalla  - Manman Mwen
TTITLE20=Cora Fluker  - Amazing Grace
TTITLE21=Cary Morin  - Sing It Louder
EXTD=
EXTT0=
EXTT1=
EXTT2=
EXTT3=
EXTT4=
EXTT5=
EXTT6=
EXTT7=
EXTT8=
EXTT9=
EXTT10=
EXTT11=
EXTT12=
EXTT13=
EXTT14=
EXTT15=
EXTT16=
EXTT17=
EXTT18=
EXTT19=
EXTT20=
EXTT21=
PLAYORDER=
